#N canvas 502 23 580 652 10;
#X obj 187 73 route 47;
#X msg 347 193 \$19;
#X text 185 183 111 pause or 97 play;
#X msg 187 123 \$8;
#X obj 187 143 sel 111 97;
#X obj 187 163 bng 15 250 50 0 empty empty empty 17 7 0 10 -262144
-1 -1;
#X obj 215 163 bng 15 250 50 0 empty empty empty 17 7 0 10 -262144
-1 -1;
#X floatatom 307 223 5 0 0 0 - - -;
#X text 186 33 udp messages starting with 47 are system, f 21;
#X text 41 562 from raw udp 0-9 = 48-57 \, A-Z = 65-90 \, a-z=97-122
;
#X obj 84 73 list length;
#X obj 51 113 spigot;
#X obj 45 223 t l l;
#N canvas 644 42 728 729 alphabet 0;
#X obj 14 446 mod 7;
#X obj 94 446 div 7;
#X obj 14 556 expr ($i1 * 2) - $i2 + ($i3 * 12);
#X obj 54 446 mod 7;
#X obj 54 526 div 3;
#X obj 54 466 t f f;
#X obj 81 486 >= 5;
#X obj 81 506 expr $i1 + 3;
#X obj 27 416 t f f;
#X obj 27 186 spigot;
#X obj 33 136 t f f;
#X obj 60 166 expr $i1 >= 65 && $i1 <= 122;
#X obj 74 236 expr $i1 >= 97;
#X obj 14 606 +;
#X obj 54 286 expr $i1 == 65 || $i1 == 66 || $i1 == 97 || $i1 == 98
;
#X obj 27 346 expr $i1 - ($i2 * 32 + 67);
#X text 240 166 is a letter?;
#X text 170 236 is lowercase?;
#X obj 27 396 expr $i1 + ($i2 * 7);
#X text 159 396 if AaBb \, transpose up so AaBb == HhIi;
#X text 384 286 is AaBb?;
#X text 206 436 *1 subtract UDP character value by either 67 or 99
\, depending on if it is uppercase or lowercase respectively \, to
set the note relative to C = 0, f 71;
#X text 224 556 *2;
#X text 195 346 *1;
#X text 206 476 *2 handles whole/half step movement and alphabetical
transposition, f 71;
#X obj 27 206 t f f;
#X obj 33 36 t l l l;
#X obj 72 56 list length;
#X obj 33 96 spigot;
#X obj 72 76 >= 3;
#X msg 33 116 \$3;
#X obj 14 656 +;
#X obj 74 256 s \$0-is-lowercase-note;
#X obj 180 326 r \$0-is-lowercase-note;
#X obj 29 586 r \$0-is-lowercase-note;
#X obj 54 306 s \$0-is-AaBb;
#X obj 144 376 r \$0-is-AaBb;
#X obj 14 676 s \$0-note;
#X obj 29 636 r \$0-octave;
#X obj 33 16 r \$0-note-bang;
#X connect 0 0 2 0;
#X connect 1 0 2 2;
#X connect 2 0 13 0;
#X connect 3 0 5 0;
#X connect 4 0 2 1;
#X connect 5 0 4 0;
#X connect 5 1 6 0;
#X connect 6 0 7 0;
#X connect 7 0 4 1;
#X connect 8 0 0 0;
#X connect 8 1 3 0;
#X connect 8 1 1 0;
#X connect 9 0 25 0;
#X connect 10 0 9 0;
#X connect 10 1 11 0;
#X connect 11 0 9 1;
#X connect 12 0 32 0;
#X connect 13 0 31 0;
#X connect 14 0 35 0;
#X connect 15 0 18 0;
#X connect 18 0 8 0;
#X connect 25 0 15 0;
#X connect 25 1 14 0;
#X connect 25 1 12 0;
#X connect 26 0 28 0;
#X connect 26 2 27 0;
#X connect 27 0 29 0;
#X connect 28 0 30 0;
#X connect 29 0 28 1;
#X connect 30 0 10 0;
#X connect 31 0 37 0;
#X connect 33 0 15 1;
#X connect 34 0 13 1;
#X connect 36 0 18 1;
#X connect 38 0 31 1;
#X connect 39 0 26 0;
#X restore 43 383 pd alphabet;
#N canvas 777 23 663 570 channel 0;
#X obj 22 229 spigot;
#X obj 88 149 t f f;
#X text 295 179 is a number?;
#X obj 115 179 expr $i1 >= 48 && $i1 <= 57;
#X obj 165 208 == 0;
#X obj 132 229 spigot;
#X obj 22 249 - 48;
#X obj 159 269 expr $i1 >= 97;
#X text 255 269 is lowercase?;
#X obj 132 249 t f f;
#X text 331 299 *1;
#X text 187 19 *1 subtract UDP character value by either 67 or 99 \,
depending on if it is uppercase or lowercase respectively \, to set
the note relative to C = 0, f 74;
#X obj 132 299 expr $i1 - ($i2 * 32 + 67) + 12;
#X obj 132 319 clip 0 16;
#X obj 121 69 list length;
#X obj 88 109 spigot;
#X obj 121 89 >= 1;
#X msg 88 129 \$1;
#X obj 94 39 t l l;
#X obj 22 349 s \$0-channel;
#X obj 94 19 r \$0-note-set;
#X connect 0 0 6 0;
#X connect 1 0 0 0;
#X connect 1 0 5 0;
#X connect 1 1 3 0;
#X connect 3 0 0 1;
#X connect 3 0 4 0;
#X connect 4 0 5 1;
#X connect 5 0 9 0;
#X connect 6 0 19 0;
#X connect 7 0 12 1;
#X connect 9 0 12 0;
#X connect 9 1 7 0;
#X connect 12 0 13 0;
#X connect 13 0 19 0;
#X connect 14 0 16 0;
#X connect 15 0 17 0;
#X connect 16 0 15 1;
#X connect 17 0 1 0;
#X connect 18 0 15 0;
#X connect 18 1 14 0;
#X connect 20 0 18 0;
#X restore 72 343 pd channel;
#N canvas 0 23 532 438 length 1;
#X msg 133 136 \$5;
#X obj 166 66 list length;
#X obj 133 116 spigot;
#X obj 166 86 >= 5;
#X obj 17 236 spigot;
#X obj 133 156 t f f;
#X text 340 186 is a number?;
#X obj 160 186 expr $i1 >= 48 && $i1 <= 57;
#X obj 210 215 == 0;
#X obj 177 236 spigot;
#X obj 204 286 expr $i1 >= 97;
#X text 300 286 is lowercase?;
#X obj 133 36 t l l b;
#X obj 177 316 expr ($f1 - ($f2 * 32 + 67) + 12) * $f3;
#X obj 177 346 s \$0-length;
#X obj 176 116 sel 0;
#X obj 133 16 r \$0-note-set;
#X obj 90 286 r \$0-quarter;
#X obj 408 286 r \$0-quarter;
#X obj 17 256 - 48;
#X obj 17 286 clip 1 10;
#X obj 177 256 t f f;
#X obj 17 316 *;
#X msg 176 136 0;
#X connect 0 0 5 0;
#X connect 1 0 3 0;
#X connect 2 0 0 0;
#X connect 3 0 2 1;
#X connect 3 0 15 0;
#X connect 4 0 19 0;
#X connect 5 0 4 0;
#X connect 5 0 9 0;
#X connect 5 1 7 0;
#X connect 7 0 4 1;
#X connect 7 0 8 0;
#X connect 8 0 9 1;
#X connect 9 0 21 0;
#X connect 10 0 13 1;
#X connect 12 0 2 0;
#X connect 12 1 1 0;
#X connect 13 0 14 0;
#X connect 15 0 23 0;
#X connect 16 0 12 0;
#X connect 17 0 22 1;
#X connect 18 0 13 2;
#X connect 19 0 20 0;
#X connect 20 0 22 0;
#X connect 21 0 13 0;
#X connect 21 1 10 0;
#X connect 22 0 14 0;
#X connect 23 0 20 0;
#X restore 72 423 pd length;
#N canvas 573 360 841 482 velocity 0;
#X obj 61 226 spigot;
#X obj 187 146 t f f;
#X text 394 176 is a number?;
#X obj 214 176 expr $i1 >= 48 && $i1 <= 57;
#X obj 264 205 == 0;
#X obj 231 226 spigot;
#X obj 258 266 expr $i1 >= 97;
#X text 354 266 is lowercase?;
#X obj 231 246 t f f;
#X text 430 296 *1;
#X text 286 16 *1 subtract UDP character value by either 67 or 99 \,
depending on if it is uppercase or lowercase respectively \, to set
the note relative to C = 0, f 74;
#X obj 231 296 expr $i1 - ($i2 * 32 + 67) + 12;
#X obj 220 66 list length;
#X obj 187 106 spigot;
#X msg 187 126 \$4;
#X obj 220 86 >= 4;
#X obj 231 316 expr ($i1 * 8) - 1;
#X obj 61 375 clip 0 127;
#X obj 61 355 f 127;
#X obj 61 246 expr (($i1 - 48) * 8) - 1;
#X obj 193 36 t l l;
#X obj 61 395 s \$0-velocity;
#X obj 193 16 r \$0-note-set;
#X connect 0 0 19 0;
#X connect 1 0 0 0;
#X connect 1 0 5 0;
#X connect 1 1 3 0;
#X connect 3 0 0 1;
#X connect 3 0 4 0;
#X connect 4 0 5 1;
#X connect 5 0 8 0;
#X connect 6 0 11 1;
#X connect 8 0 11 0;
#X connect 8 1 6 0;
#X connect 11 0 16 0;
#X connect 12 0 15 0;
#X connect 13 0 14 0;
#X connect 14 0 1 0;
#X connect 15 0 13 1;
#X connect 16 0 18 0;
#X connect 17 0 21 0;
#X connect 18 0 17 0;
#X connect 19 0 18 0;
#X connect 20 0 13 0;
#X connect 20 1 12 0;
#X connect 22 0 20 0;
#X restore 72 403 pd velocity;
#X floatatom 43 533 5 0 0 0 - - -;
#X obj 83 533 bng 15 250 50 0 empty empty empty 17 7 0 10 -262144 -1
-1;
#N canvas 551 23 445 458 note 0;
#X obj 37 366 noteout;
#X obj 147 297 t b b;
#X msg 174 327 0;
#X obj 186 227 clip 0 4200;
#X obj 147 277 delay 0;
#X obj 213 177 expr $f1 == 0;
#X obj 186 147 t f f;
#X obj 180 197 spigot;
#X obj 186 127 value \$0-length;
#X obj 309 147 expr $f1 * 35;
#X obj 56 226 value \$0-velocity;
#X obj 37 16 r \$0-note;
#X obj 87 327 value \$0-note;
#X obj 76 246 r \$0-channel;
#X obj 309 127 r \$0-quarter;
#X obj 37 86 t f b b;
#X obj 70 46 r \$0-delay;
#X obj 37 66 pipe 0;
#X connect 1 0 12 0;
#X connect 1 1 2 0;
#X connect 2 0 0 1;
#X connect 3 0 4 1;
#X connect 4 0 1 0;
#X connect 5 0 7 1;
#X connect 6 0 7 0;
#X connect 6 0 3 0;
#X connect 6 1 5 0;
#X connect 7 0 10 0;
#X connect 8 0 6 0;
#X connect 9 0 3 2;
#X connect 10 0 0 1;
#X connect 11 0 17 0;
#X connect 12 0 0 0;
#X connect 13 0 0 2;
#X connect 14 0 9 0;
#X connect 15 0 0 0;
#X connect 15 1 4 0;
#X connect 15 1 10 0;
#X connect 15 2 8 0;
#X connect 16 0 17 1;
#X connect 17 0 15 0;
#X restore 72 463 pd note;
#N canvas 977 346 450 300 octave 0;
#X obj 60 66 list length;
#X obj 27 106 spigot;
#X obj 60 86 >= 2;
#X msg 27 126 \$2;
#X obj 27 146 expr ($i1 - 48) * 12;
#X obj 33 36 t l l;
#X obj 27 166 s \$0-octave;
#X obj 33 16 r \$0-note-set;
#X connect 0 0 2 0;
#X connect 1 0 3 0;
#X connect 2 0 1 1;
#X connect 3 0 4 0;
#X connect 4 0 6 0;
#X connect 5 0 1 0;
#X connect 5 1 0 0;
#X connect 7 0 5 0;
#X restore 72 363 pd octave;
#X text 84 247 set data in cold inlets first;
#X text 56 287 then bang the note value in pd alphabet;
#X floatatom 113 533 5 0 0 0 - - -;
#X msg 397 193 120;
#X obj 397 173 loadbang;
#N canvas 13 436 711 388 delay 1;
#X obj 226 66 list length;
#X obj 193 106 spigot;
#X obj 34 236 spigot;
#X obj 193 146 t f f;
#X text 400 176 is a number?;
#X obj 220 176 expr $i1 >= 48 && $i1 <= 57;
#X obj 270 205 == 0;
#X obj 237 226 spigot;
#X obj 264 276 expr $i1 >= 97;
#X text 360 276 is lowercase?;
#X obj 226 86 >= 6;
#X msg 193 126 \$6;
#X obj 199 36 t l l;
#X obj 237 336 s \$0-delay;
#X obj 237 306 expr ($f1 - ($f2 * 32 + 67) + 12) * $f3 / 18;
#X text 360 16 delay increment = quarter note / 18 \; a value of z
should be ~= one quarter note late, f 37;
#X obj 199 16 r \$0-note-set;
#X obj 145 276 r \$0-quarter;
#X obj 498 276 r \$0-quarter;
#X obj 237 246 t f f;
#X obj 236 106 sel 0;
#X obj 34 256 - 48;
#X msg 236 126 0;
#X obj 34 306 expr $f1 * $f2 / 18;
#X connect 0 0 10 0;
#X connect 1 0 11 0;
#X connect 2 0 21 0;
#X connect 3 0 2 0;
#X connect 3 0 7 0;
#X connect 3 1 5 0;
#X connect 5 0 2 1;
#X connect 5 0 6 0;
#X connect 6 0 7 1;
#X connect 7 0 19 0;
#X connect 8 0 14 1;
#X connect 10 0 1 1;
#X connect 10 0 20 0;
#X connect 11 0 3 0;
#X connect 12 0 1 0;
#X connect 12 1 0 0;
#X connect 14 0 13 0;
#X connect 16 0 12 0;
#X connect 17 0 23 1;
#X connect 18 0 14 2;
#X connect 19 0 14 0;
#X connect 19 1 8 0;
#X connect 20 0 22 0;
#X connect 21 0 23 0;
#X connect 22 0 23 0;
#X connect 23 0 13 0;
#X restore 72 443 pd delay;
#X obj 347 173 spigot;
#X msg 380 133 \$13;
#X obj 353 103 t l l;
#X obj 380 153 == 105;
#X obj 113 503 r \$0-velocity;
#X obj 45 303 s \$0-note-bang;
#X obj 43 503 r \$0-note;
#X obj 72 263 s \$0-note-set;
#X floatatom 203 533 5 0 0 0 - - -;
#X obj 203 503 r \$0-length;
#X floatatom 283 533 5 0 0 0 - - -;
#X obj 283 503 r \$0-delay;
#X msg 78 163 \$1;
#X obj 51 133 t l l;
#X obj 84 93 expr $i1 > 0;
#X obj 45 203 spigot;
#X obj 78 183 expr $i1 >= 48;
#X obj 57 23 inlet;
#X text 41 582 example udp midi message from orca: \; 03Czz2;
#X floatatom 353 533 5 0 0 0 - - -;
#X obj 353 503 r \$0-channel;
#X text 358 297 get length of quarter note;
#X obj 347 273 expr ((60 / $f1) * 1000) / 4;
#X obj 347 313 s \$0-quarter;
#X obj 347 223 t f f;
#X obj 374 243 s bpm;
#X obj 57 43 t l l;
#X connect 0 0 3 0;
#X connect 0 0 29 0;
#X connect 1 0 7 0;
#X connect 1 0 51 0;
#X connect 3 0 4 0;
#X connect 4 0 5 0;
#X connect 4 1 6 0;
#X connect 10 0 41 0;
#X connect 11 0 40 0;
#X connect 12 0 32 0;
#X connect 12 1 34 0;
#X connect 24 0 7 0;
#X connect 24 0 51 0;
#X connect 25 0 24 0;
#X connect 27 0 1 0;
#X connect 28 0 30 0;
#X connect 29 0 27 0;
#X connect 29 1 28 0;
#X connect 30 0 27 1;
#X connect 31 0 23 0;
#X connect 33 0 17 0;
#X connect 33 0 18 0;
#X connect 36 0 35 0;
#X connect 38 0 37 0;
#X connect 39 0 43 0;
#X connect 40 0 42 0;
#X connect 40 1 39 0;
#X connect 41 0 11 1;
#X connect 42 0 12 0;
#X connect 43 0 42 1;
#X connect 44 0 53 0;
#X connect 47 0 46 0;
#X connect 49 0 50 0;
#X connect 51 0 49 0;
#X connect 51 1 52 0;
#X connect 53 0 11 0;
#X connect 53 1 10 0;
#X connect 53 1 0 0;
