#N canvas 100 23 668 763 10;
#X msg 144 64 listen 0;
#X obj 135 123 netreceive -u -b 49162;
#X msg 119 88 listen 49162;
#X obj 119 16 bng 15 250 50 0 start-listening empty start-listening
17 7 0 10 -262144 -1 -1;
#X obj 143 40 bng 15 250 50 0 stop-listening empty stop-listening 17
7 0 10 -262144 -1 -1;
#X obj 81 59 loadbang;
#X obj 265 153 route 47;
#X msg 385 193 \$19;
#X text 313 245 111 pause or 97 play;
#X msg 265 203 \$8;
#X obj 265 224 sel 111 97;
#X obj 265 245 bng 15 250 50 0 empty empty empty 17 7 0 10 -262144
-1 -1;
#X obj 293 245 bng 15 250 50 0 empty empty empty 17 7 0 10 -262144
-1 -1;
#X floatatom 345 223 5 0 0 0 - - -;
#X text 324 153 udp messages starting with 47 are system;
#X obj 29 217 print udp;
#X obj 133 296 list;
#X msg 133 234 \$1;
#X obj 133 255 >= 48;
#X obj 133 276 sel 1;
#X text 45 662 from raw udp 0-9 = 48-57 \, A-Z = 65-90 \, a-z=97-122
;
#X obj 135 153 t l l l;
#X obj 174 173 list length;
#X obj 135 213 spigot;
#X obj 133 316 t l l;
#X obj 160 346 s note-set;
#N canvas 600 99 728 729 alphabet 0;
#X obj 14 446 mod 7;
#X obj 94 446 div 7;
#X obj 14 556 expr ($i1 * 2) - $i2 + ($i3 * 12);
#X obj 54 446 mod 7;
#X obj 54 526 div 3;
#X obj 54 466 t f f;
#X obj 81 486 >= 5;
#X obj 81 506 expr $i1 + 3;
#X obj 27 416 t f f;
#X obj 27 186 spigot;
#X obj 33 136 t f f;
#X obj 60 166 expr $i1 >= 65 && $i1 <= 122;
#X obj 74 236 expr $i1 >= 97;
#X obj 14 606 +;
#X obj 54 286 expr $i1 == 65 || $i1 == 66 || $i1 == 97 || $i1 == 98
;
#X obj 27 346 expr $i1 - ($i2 * 32 + 67);
#X text 240 166 is a letter?;
#X text 170 236 is lowercase?;
#X obj 144 376 r is-AaBb;
#X obj 54 306 s is-AaBb;
#X obj 27 396 expr $i1 + ($i2 * 7);
#X text 159 396 if AaBb \, transpose up so AaBb == HhIi;
#X text 384 286 is AaBb?;
#X text 206 436 *1 subtract UDP character value by either 67 or 99
\, depending on if it is uppercase or lowercase respectively \, to
set the note relative to C = 0, f 71;
#X text 224 556 *2;
#X text 195 346 *1;
#X text 206 476 *2 handles whole/half step movement and alphabetical
transposition, f 71;
#X obj 27 206 t f f;
#X obj 74 256 s is-lowercase-note;
#X obj 180 326 r is-lowercase-note;
#X obj 33 36 t l l l;
#X obj 72 56 list length;
#X obj 33 96 spigot;
#X obj 33 16 r note-bang;
#X obj 72 76 >= 3;
#X msg 33 116 \$3;
#X obj 29 636 r octave;
#X obj 14 656 +;
#X obj 14 676 s note;
#X obj 29 586 r is-lowercase-note;
#X connect 0 0 2 0;
#X connect 1 0 2 2;
#X connect 2 0 13 0;
#X connect 3 0 5 0;
#X connect 4 0 2 1;
#X connect 5 0 4 0;
#X connect 5 1 6 0;
#X connect 6 0 7 0;
#X connect 7 0 4 1;
#X connect 8 0 0 0;
#X connect 8 1 3 0;
#X connect 8 1 1 0;
#X connect 9 0 27 0;
#X connect 10 0 9 0;
#X connect 10 1 11 0;
#X connect 11 0 9 1;
#X connect 12 0 28 0;
#X connect 13 0 37 0;
#X connect 14 0 19 0;
#X connect 15 0 20 0;
#X connect 18 0 20 1;
#X connect 20 0 8 0;
#X connect 27 0 15 0;
#X connect 27 1 14 0;
#X connect 27 1 12 0;
#X connect 29 0 15 1;
#X connect 30 0 32 0;
#X connect 30 2 31 0;
#X connect 31 0 34 0;
#X connect 32 0 35 0;
#X connect 33 0 30 0;
#X connect 34 0 32 1;
#X connect 35 0 10 0;
#X connect 36 0 37 1;
#X connect 37 0 38 0;
#X connect 39 0 13 1;
#X restore 131 436 pd alphabet;
#X obj 133 366 s note-bang;
#N canvas 444 196 663 570 channel 0;
#X obj 23 219 spigot;
#X obj 89 139 t f f;
#X text 296 169 is a number?;
#X obj 116 169 expr $i1 >= 48 && $i1 <= 57;
#X obj 166 198 == 0;
#X obj 133 219 spigot;
#X obj 23 239 - 48;
#X obj 23 259 s channel-number;
#X obj 23 399 r channel-number;
#X obj 160 259 expr $i1 >= 97;
#X text 256 259 is lowercase?;
#X obj 133 239 t f f;
#X obj 160 279 s is-lowercase-channel;
#X text 332 329 *1;
#X obj 316 309 r is-lowercase-channel;
#X text 182 19 *1 subtract UDP character value by either 67 or 99 \,
depending on if it is uppercase or lowercase respectively \, to set
the note relative to C = 0, f 74;
#X obj 133 329 expr $i1 - ($i2 * 32 + 67) + 12;
#X obj 133 349 clip 0 16;
#X obj 133 369 s channel-letter;
#X obj 133 399 r channel-letter;
#X obj 89 19 r note-set;
#X obj 23 429 s channel;
#X obj 89 39 t l l l;
#X obj 128 59 list length;
#X obj 89 99 spigot;
#X obj 128 79 >= 1;
#X msg 89 119 \$1;
#X connect 0 0 6 0;
#X connect 1 0 0 0;
#X connect 1 0 5 0;
#X connect 1 1 3 0;
#X connect 3 0 0 1;
#X connect 3 0 4 0;
#X connect 4 0 5 1;
#X connect 5 0 11 0;
#X connect 6 0 7 0;
#X connect 8 0 21 0;
#X connect 9 0 12 0;
#X connect 11 0 16 0;
#X connect 11 1 9 0;
#X connect 14 0 16 1;
#X connect 16 0 17 0;
#X connect 17 0 18 0;
#X connect 19 0 21 0;
#X connect 20 0 22 0;
#X connect 22 0 24 0;
#X connect 22 2 23 0;
#X connect 23 0 25 0;
#X connect 24 0 26 0;
#X connect 25 0 24 1;
#X connect 26 0 1 0;
#X restore 160 396 pd channel;
#X obj 174 193 > 0;
#N canvas 514 87 728 545 length 0;
#X msg 143 126 \$5;
#X obj 143 16 r note-set;
#X obj 176 66 list length;
#X obj 143 106 spigot;
#X obj 176 86 >= 5;
#X obj 27 226 spigot;
#X obj 143 146 t f f;
#X text 350 176 is a number?;
#X obj 170 176 expr $i1 >= 48 && $i1 <= 57;
#X obj 220 205 == 0;
#X obj 187 226 spigot;
#X obj 214 266 expr $i1 >= 97;
#X text 310 266 is lowercase?;
#X obj 187 246 t f f;
#X obj 260 86 expr ((60 / $f1) * 1000) / 4;
#X obj 260 66 value bpm;
#X obj 143 36 t l l b;
#X obj 260 106 value quarter;
#X obj 187 296 expr ($f1 - ($f2 * 32 + 67) + 12) * quarter;
#X obj 27 246 expr ($f1 - 48) * quarter;
#X text 350 106 get length of quarter note;
#X obj 187 326 s length;
#X connect 0 0 6 0;
#X connect 1 0 16 0;
#X connect 2 0 4 0;
#X connect 3 0 0 0;
#X connect 4 0 3 1;
#X connect 5 0 19 0;
#X connect 6 0 5 0;
#X connect 6 0 10 0;
#X connect 6 1 8 0;
#X connect 8 0 5 1;
#X connect 8 0 9 0;
#X connect 9 0 10 1;
#X connect 10 0 13 0;
#X connect 11 0 18 1;
#X connect 13 0 18 0;
#X connect 13 1 11 0;
#X connect 14 0 17 0;
#X connect 15 0 14 0;
#X connect 16 0 3 0;
#X connect 16 1 2 0;
#X connect 16 2 15 0;
#X connect 18 0 21 0;
#X connect 19 0 21 0;
#X restore 160 476 pd length;
#N canvas 454 185 841 482 velocity 0;
#X obj 67 216 spigot;
#X obj 193 136 t f f;
#X text 400 166 is a number?;
#X obj 220 166 expr $i1 >= 48 && $i1 <= 57;
#X obj 270 195 == 0;
#X obj 237 216 spigot;
#X obj 264 256 expr $i1 >= 97;
#X text 360 256 is lowercase?;
#X obj 237 236 t f f;
#X obj 264 276 s is-lowercase-channel;
#X text 436 316 *1;
#X obj 420 296 r is-lowercase-channel;
#X text 286 16 *1 subtract UDP character value by either 67 or 99 \,
depending on if it is uppercase or lowercase respectively \, to set
the note relative to C = 0, f 74;
#X obj 237 316 expr $i1 - ($i2 * 32 + 67) + 12;
#X obj 193 36 t l l l;
#X obj 232 56 list length;
#X obj 193 96 spigot;
#X msg 193 116 \$4;
#X obj 232 76 >= 4;
#X obj 237 336 expr ($i1 * 8) - 1;
#X obj 67 395 clip 0 127;
#X obj 67 415 s velocity;
#X obj 193 16 r note-set;
#X obj 67 375 f 127;
#X obj 67 236 expr (($i1 - 48) * 8) - 1;
#X connect 0 0 24 0;
#X connect 1 0 0 0;
#X connect 1 0 5 0;
#X connect 1 1 3 0;
#X connect 3 0 0 1;
#X connect 3 0 4 0;
#X connect 4 0 5 1;
#X connect 5 0 8 0;
#X connect 6 0 9 0;
#X connect 8 0 13 0;
#X connect 8 1 6 0;
#X connect 11 0 13 1;
#X connect 13 0 19 0;
#X connect 14 0 16 0;
#X connect 14 2 15 0;
#X connect 15 0 18 0;
#X connect 16 0 17 0;
#X connect 17 0 1 0;
#X connect 18 0 16 1;
#X connect 19 0 23 0;
#X connect 20 0 21 0;
#X connect 22 0 14 0;
#X connect 23 0 20 0;
#X connect 24 0 23 0;
#X restore 160 456 pd velocity;
#X floatatom 123 607 5 0 0 0 - - -;
#X obj 163 607 bng 15 250 50 0 empty empty empty 17 7 0 10 -262144
-1 -1;
#X obj 133 576 r note;
#N canvas 0 23 445 377 note 0;
#X obj 37 16 r note;
#X obj 37 305 noteout;
#X obj 76 185 r channel;
#X obj 56 165 value velocity;
#X obj 247 166 expr quarter * 35;
#X obj 145 236 t b b;
#X msg 172 266 0;
#X obj 184 186 clip 0 4200;
#X obj 37 35 t f b b;
#X obj 184 66 value length;
#X obj 145 216 delay 0;
#X obj 95 266 value note;
#X obj 211 116 expr $f1 == 0;
#X obj 184 86 t f f;
#X obj 178 136 spigot;
#X connect 0 0 8 0;
#X connect 2 0 1 2;
#X connect 3 0 1 1;
#X connect 4 0 7 2;
#X connect 5 0 11 0;
#X connect 5 1 6 0;
#X connect 6 0 1 1;
#X connect 7 0 10 1;
#X connect 8 0 1 0;
#X connect 8 1 3 0;
#X connect 8 1 10 0;
#X connect 8 2 9 0;
#X connect 9 0 13 0;
#X connect 10 0 5 0;
#X connect 11 0 1 0;
#X connect 12 0 14 1;
#X connect 13 0 14 0;
#X connect 13 0 7 0;
#X connect 13 1 12 0;
#X connect 14 0 3 0;
#X restore 160 516 pd note;
#N canvas 433 50 450 300 octave 0;
#X obj 33 36 t l l l;
#X obj 72 56 list length;
#X obj 33 96 spigot;
#X obj 72 76 >= 2;
#X msg 33 116 \$2;
#X obj 33 156 s octave;
#X obj 33 136 expr ($i1 - 48) * 12;
#X obj 33 16 r note-set;
#X connect 0 0 2 0;
#X connect 0 2 1 0;
#X connect 1 0 3 0;
#X connect 2 0 4 0;
#X connect 3 0 2 1;
#X connect 4 0 6 0;
#X connect 6 0 5 0;
#X connect 7 0 0 0;
#X restore 160 416 pd octave;
#X text 230 346 set data in cold inlets first;
#X text 210 366 then bang the note value in pd alphabet;
#X floatatom 213 607 5 0 0 0 - - -;
#X obj 223 576 r velocity;
#X msg 415 193 120;
#X obj 415 173 loadbang;
#X obj 385 223 value bpm;
#N canvas 865 305 559 388 delay 0;
#X msg 13 116 \$6;
#X obj 13 136 s delay;
#X obj 13 36 t l l l;
#X obj 52 56 list length;
#X obj 13 96 spigot;
#X obj 13 16 r note-set;
#X obj 52 76 >= 6;
#X connect 0 0 1 0;
#X connect 2 0 4 0;
#X connect 2 2 3 0;
#X connect 3 0 6 0;
#X connect 4 0 0 0;
#X connect 5 0 2 0;
#X connect 6 0 4 1;
#X restore 190 496 pd delay;
#X text 250 496 \$6 not implemented yet! delay: delay initial start
of note for behind the beat fun;
#X text 45 682 udp from orca: \; 03Czz2, f 20;
#X connect 0 0 1 0;
#X connect 1 0 6 0;
#X connect 1 0 15 0;
#X connect 1 0 21 0;
#X connect 2 0 1 0;
#X connect 3 0 2 0;
#X connect 4 0 0 0;
#X connect 5 0 2 0;
#X connect 6 0 7 0;
#X connect 6 0 9 0;
#X connect 7 0 13 0;
#X connect 7 0 43 0;
#X connect 9 0 10 0;
#X connect 10 0 11 0;
#X connect 10 1 12 0;
#X connect 16 0 24 0;
#X connect 17 0 18 0;
#X connect 18 0 19 0;
#X connect 19 0 16 0;
#X connect 21 0 23 0;
#X connect 21 1 16 1;
#X connect 21 2 22 0;
#X connect 22 0 29 0;
#X connect 23 0 17 0;
#X connect 24 0 27 0;
#X connect 24 1 25 0;
#X connect 29 0 23 1;
#X connect 34 0 32 0;
#X connect 34 0 33 0;
#X connect 40 0 39 0;
#X connect 41 0 43 0;
#X connect 41 0 13 0;
#X connect 42 0 41 0;
