#N canvas 177 110 466 431 10;
#X obj 122 79 udpreceive 49162;
#X obj 149 139 f;
#X obj 179 139 + 1;
#X msg 149 119 bang;
#X obj 122 239 list prepend;
#X obj 149 159 mod 8;
#X obj 122 259 route 0 1 2 3 4 5 6 7;
#X obj 122 299 note;
#X obj 152 299 note;
#X obj 182 299 note;
#X obj 212 299 note;
#X obj 242 299 note;
#X obj 272 299 note;
#X obj 302 299 note;
#X obj 332 299 note;
#X obj 122 99 t l b;
#X obj 209 189 sel 7;
#X msg 209 209 0;
#X obj 238 79 r bpm;
#X floatatom 238 99 5 0 0 0 - - -;
#X connect 0 0 15 0;
#X connect 1 0 2 0;
#X connect 1 0 5 0;
#X connect 2 0 1 1;
#X connect 3 0 1 0;
#X connect 4 0 6 0;
#X connect 5 0 4 1;
#X connect 5 0 16 0;
#X connect 6 0 7 0;
#X connect 6 1 8 0;
#X connect 6 2 9 0;
#X connect 6 3 10 0;
#X connect 6 4 11 0;
#X connect 6 5 12 0;
#X connect 6 6 13 0;
#X connect 6 7 14 0;
#X connect 15 0 4 0;
#X connect 15 1 3 0;
#X connect 16 0 17 0;
#X connect 17 0 1 1;
#X connect 18 0 19 0;
