#N canvas 22 23 264 212 10;
#X msg 84 64 listen 0;
#X obj 75 123 netreceive -u -b 49162;
#X msg 59 88 listen 49162;
#X obj 59 16 bng 15 250 50 0 start-listening empty start-listening
17 7 0 10 -262144 -1 -1;
#X obj 83 40 bng 15 250 50 0 stop-listening empty stop-listening 17
7 0 10 -262144 -1 -1;
#X obj 21 59 loadbang;
#X obj 75 143 note;
#X connect 0 0 1 0;
#X connect 1 0 6 0;
#X connect 2 0 1 0;
#X connect 3 0 2 0;
#X connect 4 0 0 0;
#X connect 5 0 2 0;
