#N canvas 177 110 466 431 10;
#X obj 149 139 f;
#X obj 179 139 + 1;
#X msg 149 119 bang;
#X obj 122 239 list prepend;
#X obj 149 159 mod 8;
#X obj 122 259 route 0 1 2 3 4 5 6 7;
#X obj 122 299 note;
#X obj 152 299 note;
#X obj 182 299 note;
#X obj 212 299 note;
#X obj 242 299 note;
#X obj 272 299 note;
#X obj 302 299 note;
#X obj 332 299 note;
#X obj 122 99 t l b;
#X obj 209 189 sel 7;
#X msg 209 209 0;
#X obj 25 163 print udp;
#X obj 122 79 netreceive -u -b 49162;
#X msg 122 59 listen 49162;
#X obj 122 39 loadbang;
#X connect 0 0 1 0;
#X connect 0 0 4 0;
#X connect 1 0 0 1;
#X connect 2 0 0 0;
#X connect 3 0 5 0;
#X connect 4 0 3 1;
#X connect 4 0 15 0;
#X connect 5 0 6 0;
#X connect 5 1 7 0;
#X connect 5 2 8 0;
#X connect 5 3 9 0;
#X connect 5 4 10 0;
#X connect 5 5 11 0;
#X connect 5 6 12 0;
#X connect 5 7 13 0;
#X connect 14 0 3 0;
#X connect 14 1 2 0;
#X connect 15 0 16 0;
#X connect 16 0 0 1;
#X connect 18 0 14 0;
#X connect 18 0 17 0;
#X connect 19 0 18 0;
#X connect 20 0 19 0;
